# xmcd
#
# Track frame offsets: 
#        150
#        15650
#        31850
#        55265
#        70930
#        87526
#        107717
#        123834
#        143947
#        164011
#        189917
#
# Disc length: 2751 seconds
#
# Revision: 2
# Processed by: cddbd v1.5.1PL0 Copyright (c) Steve Scherf et al.
# Submitted via: ExactAudioCopy v0.95a3
#
DISCID=930abd0b
DTITLE=Ray Herndon - Livin' The Dream
DYEAR=2004
DGENRE=Country
TTITLE0=Gotta Get Your Heartright
TTITLE1=Grain Of Salt
TTITLE2=Is This Lonely
TTITLE3=I Don't Believe The Devil's Gonna Get Me
TTITLE4=My Dog Thinks I'm Elvis
TTITLE5=Lovin' Her Was Easier
TTITLE6=Livin' The Dream
TTITLE7=When I Let You Go
TTITLE8=Bloodshot Eyes
TTITLE9=Fools Of The Trade
TTITLE10=Me And You
EXTD=
EXTT0=
EXTT1=
EXTT2=
EXTT3=
EXTT4=
EXTT5=
EXTT6=
EXTT7=
EXTT8=
EXTT9=
EXTT10=
PLAYORDER=
